<?xml version="1.0" encoding="UTF-8"?>
<svg width="30px" height="21px" viewBox="0 0 30 21" version="1.1" xmlns="http://www.w3.org/2000/svg" xmlns:xlink="http://www.w3.org/1999/xlink">
    <g id="Social-Pages" stroke="none" stroke-width="1" fill="none" fill-rule="evenodd">
        <g id="youtube_logo" fill="#ffffff">
            <path d="M23.717987,0.0252385321 L6.21714286,0.0252385321 C2.78350649,0.0252385321 0,2.77810092 0,6.17393578 L0,14.8261927 C0,18.2220275 2.78350649,20.9748899 6.21714286,20.9748899 L23.717987,20.9748899 C27.1516234,20.9748899 29.9351299,18.2220275 29.9351299,14.8261927 L29.9351299,6.17393578 C29.9351299,2.77810092 27.1516234,0.0252385321 23.717987,0.0252385321 Z M19.5133766,10.9210275 L11.3276623,14.7821376 C11.1095455,14.8850183 10.8575974,14.7277431 10.8575974,14.4887798 L10.8575974,6.52522018 C10.8575974,6.28285321 11.1161688,6.12577064 11.3347403,6.23533028 L19.5204545,10.3377798 C19.7638312,10.4597339 19.7596104,10.8049174 19.5133766,10.9210275 Z" id="Shape"></path>
        </g>
    </g>
</svg>