<?xml version="1.0" standalone="no"?>
<!DOCTYPE svg PUBLIC "-//W3C//DTD SVG 1.1//EN" "http://www.w3.org/Graphics/SVG/1.1/DTD/svg11.dtd" >
<svg xmlns="http://www.w3.org/2000/svg">
<metadata>Generated by IcoMoon</metadata>
<defs>
<font id="icomoon" horiz-adv-x="1024">
<font-face units-per-em="1024" ascent="960" descent="-64" />
<missing-glyph horiz-adv-x="1024" />
<glyph unicode="&#x20;" horiz-adv-x="512" d="" />
<glyph unicode="&#xe900;" glyph-name="facebook" d="M380.437 537.6v81.067c0 106.071 86.519 192 193.173 192h103.104c11.782 0 21.333-9.551 21.333-21.333v-136.533c0-11.782-9.551-21.333-21.333-21.333h-103.104c-7.231 0-13.035-5.764-13.035-12.8v-81.067h116.138c13.893 0 24.079-13.068 20.688-26.541l-34.368-136.533c-2.386-9.481-10.912-16.126-20.688-16.126h-81.77v-251.733c0-11.782-9.551-21.333-21.333-21.333h-137.471c-11.782 0-21.333 9.551-21.333 21.333v251.733h-81.77c-11.782 0-21.333 9.551-21.333 21.333v136.533c0 11.782 9.551 21.333 21.333 21.333h81.77zM655.38 768h-81.77c-83.155 0-150.506-66.892-150.506-149.333v-102.4c0-11.782-9.551-21.333-21.333-21.333h-81.77v-93.867h81.77c11.782 0 21.333-9.551 21.333-21.333v-251.733h94.805v251.733c0 11.782 9.551 21.333 21.333 21.333h86.475l23.628 93.867h-110.103c-11.782 0-21.333 9.551-21.333 21.333v102.4c0 30.666 24.971 55.467 55.701 55.467h81.77v93.867z" />
<glyph unicode="&#xe901;" glyph-name="instagram" d="M426.667 768c-129.603 0-234.667-105.064-234.667-234.667v-170.667c0-129.603 105.064-234.667 234.667-234.667h170.667c129.603 0 234.667 105.064 234.667 234.667v170.667c0 129.603-105.064 234.667-234.667 234.667h-170.667zM426.667 810.667h170.667c153.167 0 277.333-124.166 277.333-277.333v-170.667c0-153.167-124.166-277.333-277.333-277.333h-170.667c-153.167 0-277.333 124.166-277.333 277.333v170.667c0 153.167 124.166 277.333 277.333 277.333zM617.507 463.644c-6.892 46.477-43.385 82.971-89.863 89.863-45.517 6.75-90.232-16.452-110.92-57.554s-12.685-90.838 19.853-123.376c32.537-32.537 82.273-40.541 123.376-19.853s64.304 65.403 57.554 110.92zM659.712 469.903c9.45-63.725-23.033-126.326-80.577-155.29s-127.175-17.759-172.728 27.794c-45.553 45.553-56.758 115.184-27.794 172.728s91.565 90.026 155.29 80.577c65.069-9.649 116.16-60.74 125.809-125.809z" />
<glyph unicode="&#xe902;" glyph-name="linkedin" d="M851.25 373.895c0 99.849-80.731 180.772-180.291 180.772s-180.291-80.923-180.291-180.772v-214.456h91.75v214.456c0 48.977 39.63 88.702 88.542 88.702s88.542-39.724 88.542-88.702v-214.456h91.75v214.456zM670.958 597.333c123.148 0 222.958-100.048 222.958-223.439v-235.789c0-11.782-9.551-21.333-21.333-21.333h-134.417c-11.782 0-21.333 9.551-21.333 21.333v235.789c0 25.436-20.55 46.035-45.875 46.035s-45.875-20.599-45.875-46.035v-235.789c0-11.782-9.551-21.333-21.333-21.333h-134.417c-11.782 0-21.333 9.551-21.333 21.333v235.789c0 123.39 99.81 223.439 222.958 223.439zM192 512v-361.544h91.75v361.544h-91.75zM170.667 554.667h134.417c11.782 0 21.333-9.551 21.333-21.333v-404.211c0-11.782-9.551-21.333-21.333-21.333h-134.417c-11.782 0-21.333 9.551-21.333 21.333v404.211c0 11.782 9.551 21.333 21.333 21.333zM237.875 633.263c-48.912 0-88.542 39.724-88.542 88.702s39.63 88.702 88.542 88.702c48.912 0 88.542-39.724 88.542-88.702s-39.63-88.702-88.542-88.702zM237.875 675.93c25.325 0 45.875 20.599 45.875 46.035s-20.55 46.035-45.875 46.035c-25.325 0-45.875-20.599-45.875-46.035s20.55-46.035 45.875-46.035z" />
<glyph unicode="&#xe903;" glyph-name="location" d="M207.906 396.563l304.065-460.563 304.008 460.563c37.625 56.289 60.044 125.517 60.044 199.984 0 109.047-48.075 206.864-124.187 273.414l-0.424 0.363c-63.666 55.702-147.571 89.676-239.412 89.676s-175.746-33.973-239.836-90.039l0.424 0.363c-76.535-66.914-124.611-164.731-124.611-273.777 0-74.465 22.419-143.695 60.875-201.307l-0.831 1.324h-0.114zM511.971 783.285c0.034 0 0.074 0 0.114 0 101.421 0 183.65-82.169 183.747-183.567v-0.009c-0.065-101.432-82.306-183.633-183.747-183.633-0.040 0-0.080 0-0.12 0h0.006c-0.034 0-0.074 0-0.114 0-101.441 0-183.682 82.201-183.747 183.627v0.006c0.226 101.395 82.443 183.512 183.855 183.576h0.006z" />
<glyph unicode="&#xe904;" glyph-name="pin" d="M511.989 874.667c-235.633 0-426.655-191.037-426.655-426.661s191.023-426.678 426.655-426.678c235.633 0 426.678 191.043 426.678 426.678s-191.046 426.661-426.678 426.661zM307.429 244.353l101.027 162.78c8.485-11.19 17.986-22.264 28.735-33.013 10.63-10.638 21.698-20.236 32.962-28.78l-162.723-100.987zM707.247 510.365c-10.749-10.755-28.971-11.81-49.215-4.921l-54.122-54.105c27.202-44.192 33.678-87.223 12.445-108.476-8.596-8.596-20.759-12.661-35.123-12.661-26.448 0-60.362 13.841-93.19 38.642-0.731 0.546-1.454 1.121-2.176 1.69-2.338 1.801-4.671 3.658-6.995 5.578-0.922 0.759-1.838 1.519-2.759 2.295-2.213 1.875-4.412 3.806-6.602 5.777-0.862 0.774-1.732 1.533-2.597 2.324-2.981 2.745-5.939 5.555-8.861 8.477-3.334 3.334-6.528 6.713-9.62 10.121-1.917 2.111-3.718 4.241-5.547 6.374-0.996 1.166-2.028 2.324-3.004 3.504-2.369 2.847-4.611 5.709-6.81 8.579-0.273 0.361-0.555 0.717-0.819 1.070-38.488 50.779-50.794 104.184-26.314 128.661 8.596 8.596 20.759 12.661 35.123 12.661 21.151 0 47.059-8.861 73.381-25.068l54.085 54.076c-6.889 20.25-5.828 38.466 4.935 49.215 20.147 20.162 66.447 6.551 103.385-30.396 36.955-36.947 50.566-83.246 30.399-103.416z" />
<glyph unicode="&#xe905;" glyph-name="tag" d="M511.989 874.667c235.633 0 426.678-191.024 426.678-426.658s-191.046-426.675-426.678-426.675c-235.633 0-426.655 191.053-426.655 426.675s191.023 426.658 426.655 426.658zM673.456 488.667l9.211 70h-45.352l7.895 60h-70.173l-7.895-60h-81.161l7.895 60h-70.173l-7.895-60h-45.353l-9.21-70h45.352l-10.702-81.333h-45.352l-9.211-70h45.353l-7.895-60h70.173l7.895 60h81.161l-7.895-60h70.173l7.895 60h45.352l9.211 70h-45.352l10.702 81.333h45.351zM544.725 405.333h-75.392l9.941 85.333h75.392l-9.941-85.333z" />
<glyph unicode="&#xe906;" glyph-name="twitter" d="M910.037 806.4c3.422 2.44 7.689 3.901 12.298 3.901 11.782 0 21.333-9.551 21.333-21.333 0-1.794-0.221-3.536-0.638-5.2l0.031 0.147c-13.798-55.441-40.698-103.334-77.278-141.969l0.136 0.145c1.067-8.064 1.621-16.213 1.621-24.32 0-438.059-421.419-662.4-792.576-456.192-19.627 10.923-11.221 40.875 11.221 39.979 4.995-0.212 10.855-0.333 16.743-0.333 75.081 0 145.577 19.629 206.638 54.034l-2.111-1.094c-95.829 51.115-155.435 121.856-183.168 207.147-26.027 80-22.187 164.693-0.299 245.248 3.84 14.165 7.979 27.008 12.16 38.357 2.517 6.912 4.523 11.861 5.76 14.635 3.394 7.555 10.853 12.722 19.518 12.722 7.199 0 13.566-3.566 17.429-9.028l0.045-0.067c68.351-96.468 178.22-159.625 303.016-163.272l0.558-0.013v16.427c-0.011 0.756-0.017 1.648-0.017 2.542 0 105.921 85.866 191.787 191.787 191.787 52.621 0 100.292-21.192 134.944-55.507l-0.015 0.015c38.478 13.173 71.859 30.513 102.072 52.017l-1.208-0.817zM808.96 710.272c-1.842-0.576-3.96-0.907-6.155-0.907-6.401 0-12.143 2.819-16.053 7.283l-0.021 0.025c-27.487 31.489-67.697 51.273-112.529 51.273-82.357 0-149.12-66.763-149.12-149.12 0-0.791 0.006-1.58 0.018-2.368l-0.001 0.119v-38.059c0-0.002 0-0.005 0-0.007 0-11.587-9.238-21.016-20.75-21.326l-0.029-0.001c-3.249-0.089-7.074-0.139-10.91-0.139-129.812 0-246.091 57.937-324.392 149.363l-0.485 0.579c-0.314-0.56-1.455-4.436-2.546-8.332l-0.782-3.273c-19.925-73.216-23.381-149.931-0.299-220.885 27.221-83.712 89.557-151.595 195.413-198.699 7.518-3.409 12.653-10.849 12.653-19.487 0-7.297-3.664-13.739-9.253-17.586l-0.072-0.047c-54.652-37.544-119.805-64.052-190.149-74.771l-2.576-0.323c322.219-124.757 653.995 79.019 653.995 454.101 0 9.259-0.896 18.517-2.645 27.648-0.242 1.206-0.38 2.592-0.38 4.010 0 5.943 2.43 11.319 6.351 15.187l0.002 0.002c21.598 21.309 39.633 46.161 53.176 73.625l0.712 1.596c-20.597-10.845-44.81-20.842-69.998-28.619l-3.090-0.821z" />
<glyph unicode="&#xe907;" glyph-name="views" d="M512 352.773c-55.408 0-100.478 44.575-100.478 99.374s45.070 99.374 100.478 99.374c55.408 0 100.478-44.575 100.478-99.374s-45.070-99.374-100.478-99.374zM512 597.114c-80.832 0-146.577-65.023-146.577-144.966s65.745-144.966 146.577-144.966c80.832 0 146.577 65.023 146.577 144.966s-65.745 144.966-146.577 144.966zM512 236.126c-183.146 0-342.272 162.206-390.921 217.154 48.649 54.531 207.385 214.888 390.921 214.888 183.115 0 342.163-160.417 390.921-214.933-48.556-54.978-207.354-217.109-390.921-217.109zM942.411 470.85c-7.808 10.209-193.736 250.217-430.411 250.217s-422.602-240.007-430.411-250.217l-13.323-17.437 13.249-17.496c7.794-10.326 193.722-252.689 430.484-252.689s422.691 242.363 430.484 252.689l13.249 17.496-13.323 17.437z" />
<glyph unicode="&#xe908;" glyph-name="youtube" d="M941.493 658.363c12.841-70.647 18.928-140.904 18.484-211.059 0.25-69.315-5.836-138.508-18.484-208.122-11.242-44.744-45.635-80.064-90.443-92.69-27.68-7.374-84.584-12.139-163.972-15.161-38.322-1.459-79.339-2.395-120.349-2.915-14.349-0.182-27.675-0.299-39.637-0.364-7.188-0.039-12.332-0.052-15.092-0.052s-7.904 0.013-15.092 0.052c-11.963 0.065-25.288 0.182-39.637 0.364-41.011 0.52-82.027 1.457-120.349 2.915-79.388 3.021-136.292 7.786-164.090 15.192-43.572 11.876-77.762 45.585-90.626 90.965-12.539 69.25-18.626 139.506-18.183 209.632-0.346 69.84 5.74 139.565 18.484 209.696 11.242 44.744 45.635 80.064 90.443 92.69 27.68 7.374 84.584 12.139 163.972 15.161 38.322 1.459 79.339 2.395 120.349 2.915 14.349 0.182 27.675 0.299 39.637 0.364 7.188 0.039 12.332 0.052 15.092 0.052 2.757 0 7.898-0.012 15.082-0.048 11.958-0.059 25.279-0.166 39.624-0.332 40.996-0.475 81.998-1.33 120.303-2.661 79.244-2.754 136.080-7.099 164.337-13.987 44.513-12.545 78.906-47.866 90.148-92.609zM840.516 709.71c-23.542 5.727-79.027 9.968-154.99 12.608-37.937 1.318-78.623 2.167-119.315 2.638-14.246 0.165-27.474 0.271-39.341 0.33-7.111 0.035-12.181 0.047-14.87 0.047-2.685 0-7.752-0.013-14.86-0.052-11.863-0.065-25.086-0.181-39.328-0.361-40.677-0.516-81.348-1.445-119.268-2.888-75.819-2.886-131.235-7.526-154.315-13.672-29.816-8.403-52.828-32.036-60.039-60.541-11.976-66.155-17.834-133.265-17.501-200.726-0.427-67.727 5.432-135.349 17.020-199.939 8.277-28.954 31.156-51.51 60.225-59.433 23.375-6.228 78.791-10.868 154.611-13.753 37.92-1.443 78.591-2.372 119.268-2.888 14.242-0.181 27.465-0.297 39.328-0.361 7.108-0.039 12.175-0.052 14.86-0.052s7.752 0.013 14.86 0.052c11.863 0.064 25.086 0.181 39.328 0.361 40.677 0.516 81.348 1.445 119.268 2.888 75.819 2.886 131.235 7.526 154.315 13.672 29.816 8.403 52.828 32.036 60.039 60.541 11.884 65.657 17.741 132.255 17.501 199.181 0.425 67.477-5.388 134.848-17.367 201.262-7.684 29.593-30.571 52.939-59.429 61.086zM437.643 301.707c-14.219-8.532-32.309 1.711-32.309 18.293v256c0 16.582 18.090 26.825 32.309 18.293l213.333-128c13.81-8.286 13.81-28.3 0-36.586l-213.333-128zM598.535 448l-150.535 90.321v-180.643l150.535 90.321z" />
<glyph unicode="&#xe909;" glyph-name="arrow-short" d="M475.995 846.217c25.631 24.393 50.041 50.006 75.671 74.399 157.445-157.335 314.889-314.67 472.334-472.006-157.445-157.335-314.889-315.89-472.334-473.225-25.631 25.613-50.041 50.006-75.671 75.618 115.948 114.647 230.675 229.295 345.402 343.942-273.392 0-548.005 0-821.397 0 0 35.37 0 70.74 0 106.11 273.392 0 548.005 0 821.397 0-114.727 114.647-229.454 230.514-345.402 345.162z" />
<glyph unicode="&#xe90a;" glyph-name="big-clap" d="M919.984 385.744c-5.913 6.627-12.813 11.361-19.712 15.148 20.697 23.669 23.654 58.698 5.913 84.26-7.885 12.308-19.712 20.828-32.524 26.509 10.841 24.615 6.899 53.964-12.813 75.739-24.64 26.509-66.034 30.296-95.602 11.361-4.928 10.414-11.827 19.882-21.683 27.455 0 0 0 0 0 0-27.596 21.775-69.976 19.882-96.587-3.787l-10.841-9.467c-3.942 7.574-9.856 13.254-16.755 18.935 0 0 0 0 0 0-27.596 21.775-69.976 19.882-96.587-3.787l-107.429-93.727c-8.87 17.041-24.64 30.296-45.337 35.029-19.712 5.68-42.38 1.893-59.135-8.521-7.885-4.734-14.784-11.361-20.697-18.935-8.87 16.095-24.64 29.349-44.351 34.083-19.712 5.68-42.38 1.893-59.135-8.521-17.74-11.361-29.567-28.402-32.524-48.284 0-0.947 0-2.84 0-3.787l1.971-231.952c-2.957-17.988-12.813-35.029-26.611-46.39-9.856-8.521-15.769-19.882-15.769-33.136s3.942-24.615 12.813-34.083l174.448-184.614c8.87-9.467 20.697-15.148 34.495-15.148 0.986 0 1.971 0 2.957 0 12.813 0 24.64 4.734 33.51 12.308l8.87 7.574c6.899 5.68 13.798 10.414 21.683 14.201l22.668-24.615c8.87-9.467 20.697-15.148 34.495-15.148 0.986 0 1.971 0 2.957 0 12.813 0 24.64 4.734 33.51 12.308l8.87 7.574c9.856 8.521 20.697 14.201 32.524 17.988 72.933 20.828 133.054 71.952 133.054 72.899l244.424 211.123c29.567 25.562 31.539 70.059 4.928 99.408zM555.319 592.134c9.856 8.521 23.654 9.467 32.524 1.893 4.928-3.787 7.885-9.467 8.87-16.095 0 0 0-0.947 0-0.947l-150.794-130.65c-2.957-1.893-4.928-1.893-6.899-1.893-0.986 0-3.942 1.893-4.928 4.734l-6.899 30.296 128.126 112.662zM346.375 23.142l-9.856-7.574-174.448 185.561c22.668 19.882 38.438 47.337 42.38 76.686 0 0.947 0 2.84 0 3.787l-2.957 231.005c0.986 5.68 4.928 11.361 10.841 14.201 5.913 3.787 12.813 4.734 19.712 2.84 9.856-2.84 16.755-11.361 17.74-21.775 0.986-9.467 0.986-18.935 3.942-28.402l7.885-34.083c2.957-11.361 8.87-20.828 16.755-27.455l1.971-140.118c-2.957-17.988-12.813-35.029-26.611-46.39-9.856-8.521-15.769-19.882-15.769-33.136s3.942-24.615 12.813-34.083l117.284-124.97c-7.885-4.734-14.784-10.414-21.683-16.095zM881.547 321.366l-244.424-213.017c-0.986 0-52.236-45.444-114.328-62.485-18.726-5.68-37.452-15.148-52.236-28.402l-9.856-7.574-174.448 185.561c22.668 19.882 38.438 47.337 42.38 76.686 0 0.947 0 2.84 0 3.787l-2.957 231.005c0.986 5.68 4.928 11.361 10.841 14.201 5.913 3.787 12.813 4.734 19.712 2.84 9.856-2.84 16.755-11.361 17.74-21.775 0.986-9.467 0.986-18.935 3.942-28.402l7.885-34.083c4.928-18.935 18.726-34.083 38.438-39.763s39.423-1.893 55.193 11.361l200.073 175.147c9.856 8.521 23.654 9.467 32.524 1.893 4.928-3.787 7.885-9.467 8.87-16.095 0.986-5.68-0.986-11.361-4.928-16.095-3.942-3.787-26.611-23.669-128.126-111.715l-3.942-2.84c-9.856-8.521-10.841-23.669-1.971-33.136s24.64-10.414 34.495-1.893l173.463 151.479c9.856 7.574 24.64 6.627 32.524-2.84 8.87-9.467 7.885-23.669-1.971-32.189l-163.607-144.851c-5.913-5.68-9.856-8.521-11.827-10.414-9.856-8.521-10.841-23.669-1.971-33.136s24.64-10.414 34.495-1.893l1.971 1.893c16.755 14.201 139.953 122.13 149.809 130.65 4.928 3.787 11.827 4.734 17.74 3.787 6.899-0.947 12.813-4.734 15.769-10.414 5.913-9.467 3.942-22.722-4.928-30.296l-147.837-128.757c-9.856-8.521-10.841-23.669-1.971-33.136s24.64-10.414 34.495-1.893l8.87 7.574c60.121 53.017 93.63 81.42 98.558 86.153 9.856 6.627 23.654 5.68 31.539-2.84 10.841-11.361 9.856-25.562 0-34.083zM398.222 781.052l62.468 36.725 22.865-113.778zM540.444 903.111h85.333l-42.667-113.778zM705.532 817.778l62.468-36.725-85.333-77.052z" />
<glyph unicode="&#xe90b;" glyph-name="chevron-right" d="M299.82 960l-129.153-119.467 424.36-392.533-424.36-392.533 129.153-119.467 553.514 512z" />
<glyph unicode="&#xe90c;" glyph-name="clap" d="M869.686 404.501c-5.628 6.296-12.194 10.793-18.76 14.39 19.698 22.485 22.512 55.763 5.628 80.047-7.504 11.692-18.76 19.787-30.954 25.183 10.318 23.384 6.566 51.266-12.194 71.952-23.45 25.183-62.846 28.781-90.986 10.793-4.69 9.893-11.256 18.887-20.636 26.083 0 0 0 0 0 0-26.264 20.686-66.598 18.887-91.924-3.598l-10.318-8.994c-3.752 7.195-9.38 12.592-15.946 17.988 0 0 0 0 0 0-26.264 20.686-66.598 18.887-91.924-3.598l-102.242-89.041c-8.442 16.189-23.45 28.781-43.148 33.278-18.76 5.396-40.334 1.799-56.28-8.095-7.504-4.497-14.070-10.793-19.698-17.988-8.442 15.29-23.45 27.882-42.21 32.379-18.76 5.396-40.334 1.799-56.28-8.095-16.884-10.793-28.14-26.982-30.954-45.87 0-0.899 0-2.698 0-3.598l1.876-220.354c-2.814-17.089-12.194-33.278-25.326-44.071-9.38-8.095-15.008-18.887-15.008-31.479s3.752-23.384 12.194-32.379l166.026-175.384c8.442-8.994 19.698-14.39 32.83-14.39 0.938 0 1.876 0 2.814 0 12.194 0 23.45 4.497 31.892 11.692l8.442 7.195c6.566 5.396 13.132 9.893 20.636 13.491l21.574-23.385c8.442-8.994 19.698-14.39 32.83-14.39 0.938 0 1.876 0 2.814 0 12.194 0 23.45 4.497 31.892 11.692l8.442 7.195c9.38 8.095 19.698 13.491 30.954 17.089 69.412 19.787 126.63 68.355 126.63 69.254l232.625 200.567c28.14 24.284 30.016 66.556 4.69 94.437zM522.625 600.571c9.38 8.095 22.512 8.994 30.954 1.799 4.69-3.598 7.504-8.994 8.442-15.29 0 0 0-0.899 0-0.899l-143.514-124.118c-2.814-1.799-4.69-1.799-6.566-1.799-0.938 0-3.752 1.799-4.69 4.497l-6.566 28.781 121.94 107.029zM323.769 60.030l-9.38-7.195-166.026 176.283c21.574 18.887 36.582 44.97 40.334 72.852 0 0.899 0 2.698 0 3.598l-2.814 219.455c0.938 5.396 4.69 10.793 10.318 13.491 5.628 3.598 12.194 4.497 18.76 2.698 9.38-2.698 15.946-10.793 16.884-20.686 0.938-8.994 0.938-17.988 3.752-26.982l7.504-32.379c2.814-10.793 8.442-19.787 15.946-26.083l1.876-133.112c-2.814-17.089-12.194-33.278-25.326-44.071-9.38-8.095-15.008-18.887-15.008-31.479s3.752-23.384 12.194-32.379l111.622-118.721c-7.504-4.497-14.070-9.893-20.636-15.29zM833.104 343.342l-232.625-202.366c-0.938 0-49.714-43.171-108.808-59.361-17.822-5.396-35.644-14.39-49.714-26.982l-9.38-7.195-166.026 176.283c21.574 18.887 36.582 44.97 40.334 72.852 0 0.899 0 2.698 0 3.598l-2.814 219.455c0.938 5.396 4.69 10.793 10.318 13.491 5.628 3.598 12.194 4.497 18.76 2.698 9.38-2.698 15.946-10.793 16.884-20.686 0.938-8.994 0.938-17.988 3.752-26.982l7.504-32.379c4.69-17.988 17.822-32.379 36.582-37.775s37.52-1.799 52.528 10.793l190.415 166.39c9.38 8.095 22.512 8.994 30.954 1.799 4.69-3.598 7.504-8.994 8.442-15.29 0.938-5.396-0.938-10.793-4.69-15.29-3.752-3.598-25.326-22.485-121.94-106.13l-3.752-2.698c-9.38-8.095-10.318-22.485-1.876-31.479s23.45-9.893 32.83-1.799l165.088 143.905c9.38 7.195 23.45 6.296 30.954-2.698 8.442-8.994 7.504-22.485-1.876-30.58l-155.708-137.609c-5.628-5.396-9.38-8.095-11.256-9.893-9.38-8.095-10.318-22.485-1.876-31.479s23.45-9.893 32.83-1.799l1.876 1.799c15.946 13.491 133.196 116.023 142.576 124.118 4.69 3.598 11.256 4.497 16.884 3.598 6.566-0.899 12.194-4.497 15.008-9.893 5.628-8.994 3.752-21.586-4.69-28.781l-140.7-122.319c-9.38-8.095-10.318-22.485-1.876-31.479s23.45-9.893 32.83-1.799l8.442 7.195c57.218 50.367 89.11 77.349 93.8 81.846 9.38 6.296 22.512 5.396 30.016-2.698 10.318-10.793 9.38-24.284 0-32.379zM375.467 789.333l59.121 34.133 21.64-105.748zM512 891.733h68.267l-34.133-102.4zM657.679 823.467l59.121-34.133-80.76-71.614z" />
<glyph unicode="&#xe90d;" glyph-name="search" d="M931.286 64.851l-207.419 207.373c55.64 63.953 89.327 147.394 89.327 238.593 0 200.751-163.324 363.849-363.93 363.849-200.795 0-363.93-163.288-363.93-363.849s163.324-363.849 363.93-363.849c91.219 0 174.679 33.679 238.646 89.307l207.419-207.373c4.921-4.919 11.544-7.568 17.979-7.568s13.058 2.46 17.979 7.568c9.841 9.839 9.841 26.111 0 35.95zM136.242 510.817c0 172.559 140.424 312.763 312.832 312.763 172.597 0 312.832-140.393 312.832-312.763s-140.235-312.952-312.832-312.952c-172.408 0-312.832 140.393-312.832 312.952z" />
<glyph unicode="&#xe90e;" glyph-name="linkedin-fill" horiz-adv-x="1062" d="M240.587 625.731h-228.141v-686.314h228.141v686.314zM128.033 956.598c-78.054 0-129.134-51.214-129.134-118.554 0-65.9 49.578-118.655 126.124-118.655h1.536c79.556 0 129.072 52.755 129.072 118.655-1.503 67.34-49.516 118.554-127.598 118.554zM800.634 641.861c-121.196 0-175.358-66.718-205.661-113.406v-2.225h-1.474c0.426 0.699 1.048 1.507 1.474 2.225v97.27h-228.165c3.043-64.402 0-686.314 0-686.314h228.175v383.297c0 20.552 1.536 40.95 7.56 55.636 16.528 41.027 54.042 83.451 117.095 83.451 82.566 0 115.597-62.966 115.597-155.198v-367.195h228.141v393.57c-0.010 210.81-112.563 308.889-262.742 308.889z" />
<glyph unicode="&#xe90f;" d="M994.464 339.232c7.424 33.312 11.392 67.84 11.392 103.328 0 265.92-218.752 481.504-488.64 481.504-28.576 0-56.448-2.432-83.616-7.040-43.648 27.104-95.328 42.816-150.752 42.816-156.512 0-283.36-124.992-283.36-279.2 0-51.52 14.272-99.808 38.944-141.248-6.464-31.296-9.856-63.648-9.856-96.832 0-265.92 218.72-481.472 488.672-481.472 30.528 0 60.416 2.784 89.376 8.096 39.904-21.152 85.536-33.184 134.016-33.184 156.48 0 283.36 124.992 283.36 279.232 0 44.576-10.624 86.656-29.536 124z" />
<glyph unicode="&#xe910;" d="M381.888 745.472c-36.672-15.008-65.216-36.928-84.736-65.12-19.712-28.384-29.696-61.28-29.696-97.824 0-38.304 9.504-70.912 28.256-96.832 18.496-25.6 43.712-46.016 75.040-60.768 30.624-14.368 69.088-27.136 114.496-37.888 33.344-7.712 60.256-15.104 80.096-21.984 19.072-6.56 34.784-16.128 46.656-28.448 11.296-11.744 16.832-26.752 16.832-45.856 0-24.16-10.56-43.84-32.352-60.288-22.24-16.8-51.808-25.376-88-25.376-26.208 0-47.552 4.256-63.392 12.512-15.776 8.256-28.064 18.816-36.64 31.328-8.864 13.056-17.344 29.6-25.088 49.248-6.944 17.984-15.52 31.936-25.632 41.344-10.496 9.856-23.488 14.848-38.496 14.848-18.208 0-33.568-6.272-45.568-18.784-12.032-12.544-18.176-27.904-18.176-45.632 0-28.32 9.408-57.728 27.968-87.296 18.336-29.344 42.56-53.12 71.872-70.624 41.088-24.128 93.696-36.32 156.416-36.32 52.224 0 98.144 8.928 136.512 26.528 38.688 17.824 68.544 42.848 88.704 74.528 20.32 31.744 30.56 68.032 30.56 107.84 0 33.28-5.952 61.888-17.76 85.088-11.744 23.104-28.352 42.464-49.216 57.536-20.512 14.784-45.696 27.488-74.784 37.76-28.672 10.208-61.12 19.584-96.544 28-27.936 7.168-48.32 12.64-60.448 16.352-11.808 3.648-23.648 8.736-35.136 15.072-11.072 6.144-19.872 13.568-26.048 21.92-5.888 7.936-8.736 17.12-8.736 28.16 0 17.984 8.864 33.056 27.104 46.304 18.912 13.76 44.416 20.672 75.68 20.672 33.728 0 58.24-6.24 72.928-18.592 15.168-12.672 28.32-30.784 39.2-53.664 9.408-17.952 17.952-30.4 26.080-38.4 8.8-8.608 21.408-12.96 37.664-12.96 17.76 0 32.8 6.976 44.736 20.704 11.936 13.696 17.984 29.376 17.984 46.656 0 17.952-4.608 36.512-13.664 55.136-8.96 18.4-23.296 36.224-42.496 52.8-19.104 16.48-43.328 29.92-72.096 39.808-28.672 9.856-62.976 14.848-101.952 14.848-48.8 0.032-91.872-7.488-128.128-22.336z" />
<glyph unicode="&#xe911;" glyph-name="clip" d="M751.204 832c0.135 0 27.217-0.171 81.247-0.514 58.566-0.368 106.215-48.757 106.215-107.883v-80.474c0-25.209-9.727-48.918-27.381-66.751l-480.194-484.719c-17.646-17.833-41.133-27.659-66.133-27.659h-172.739c-58.936 0-106.887 48.403-106.887 107.897v174.371c0 25.209 9.727 48.918 27.381 66.751l332.003 334.327c10.425 10.537 27.348 10.537 37.786 0s10.438-27.606 0-38.143l-331.989-334.313c-7.561-7.652-11.736-17.82-11.736-28.621v-174.371c0-29.753 23.974-53.948 53.443-53.948h172.739c10.712 0 20.773 4.201 28.333 11.84l480.194 484.719c7.561 7.652 11.736 17.821 11.736 28.621v80.474c0 29.555-23.826 53.751-53.104 53.935l-80.661 0.514c-10.562 0.553-21.065-4.253-28.594-11.84l-362.882-366.311 50.24-50.722 315.82 318.803c10.425 10.537 27.348 10.537 37.786 0s10.438-27.606 0-38.143l-315.813-318.804c-20.838-21.035-54.741-21.060-75.579 0l-50.247 50.722c-10.092 10.195-15.651 23.734-15.651 38.143s5.558 27.949 15.657 38.143l362.882 366.313c17.426 17.596 41.499 27.645 66.126 27.645z" />
<glyph unicode="&#xe912;" glyph-name="cross" d="M522.353 497.987l120.68 120.68 60.34-60.34-120.68-120.68 120.68-120.68-60.34-60.34-120.68 120.68-120.68-120.68-60.34 60.34 120.68 120.68-120.68 120.68 60.34 60.34z" />
<glyph unicode="&#xe913;" glyph-name="question" d="M725.333 405.333h-170.667v-42.667h-85.333v128h170.667v85.333h-256v-42.667h-85.333v128h426.667v-256zM469.333 234.667v85.333h85.333v-85.333h-85.333z" />
<glyph unicode="&#xe914;" glyph-name="success" d="M338.23 222.312l-228.073 224.669-76.024-74.89 304.097-299.558 651.636 641.91-76.024 74.89z" />
<glyph unicode="&#xe915;" glyph-name="arrow-long" horiz-adv-x="1512" d="M879.067 790.379c7.55 7.933 15.478 15.489 23.028 23.422-48.699 48.733-97.398 97.466-146.097 146.199-48.699-48.733-97.775-97.466-146.474-146.199 7.928-7.933 15.478-15.489 23.406-23.422 35.486 35.889 70.972 71.399 106.458 106.91 0-84.621 0-632.859 0-717.48 10.948 0 21.896 0 32.844 0 0 84.621 0 632.859 0 717.48 35.486-35.511 71.35-71.022 106.836-106.91zM1487.238-15.238h24.381v-48.762h-1511.619v48.762h24.381z" />
</font>
</defs>
</svg>
